<svg id="Layer_1" data-name="Layer 1" xmlns="http://www.w3.org/2000/svg" width="193.6" height="307.26" viewBox="0 0 193.6 307.26"><defs><style>.cls-1{fill:none;stroke:#f2eae1;stroke-miterlimit:10;stroke-width:4px;}.cls-2{fill:#f2eae1;}</style></defs><path class="cls-1" d="M33.53,29.06c-.05,3,5.59,3.87,9.12,12.45,1,2.34,1.48,5.15,2.49,10.78A78.77,78.77,0,0,1,46.8,66.4,48.11,48.11,0,0,1,46,77.18c-1.78,7.94-6.72,11.66-12.44,18.25,0,0-10.2,11.76-15.77,25.72-3.88,9.73-4.35,17.68-5,28.21a116.88,116.88,0,0,0,2.49,34.84c1,4.49,1.81,6.5,13.27,34C41,248.11,40.78,247.41,41,248.08c2.68,8.54,5.56,20.08,13.28,32.36a24.3,24.3,0,0,0,6.63,7.46c5,3.56,9.94,3.71,20.74,4.15,22.79.93,22.26,1.13,24.89.83,10-1.12,18.4-2.06,23.23-8.3,1.88-2.42,1.35-3.23,5-12.44,2.41-6.14,4-9.35,6.64-14.93,0,0,5.21-11.28,11.61-27.38A370.63,370.63,0,0,0,168,183.37,229.37,229.37,0,0,0,173.73,151c1.44-13.71.62-18.19,0-20.74-2-8.19-6.08-14.08-12.44-23.23-4.78-6.88-6.18-7.58-11.62-15.77-4.66-7-7-10.61-8.29-14.93-2-6.89-1.49-12.85-.83-19.91.62-6.73.77-10.11,2.49-14.1,3.72-8.69,11.42-9.62,11.24-13.2-.31-6.33-23.21-9.85-23.21-9.85C83.93,12,33.66,20.21,33.53,29.06Z"/><path class="cls-2" d="M93.9,15c35.67,0,59.63,7.26,59.63,14.05s-24,14.06-59.63,14.06-59.62-7.26-59.62-14,24-14,59.62-14m0-.75c-33.34,0-60.37,6.62-60.37,14.8s27,14.81,60.37,14.81,60.38-6.63,60.38-14.81S127.28,14.31,93.9,14.31Z"/></svg>