<svg id="Layer_1" data-name="Layer 1" xmlns="http://www.w3.org/2000/svg" width="54.68" height="91.37" viewBox="0 0 54.68 91.37"><path d="M30.47,88.23c-.34,0-.85,0-1.95-.08l-4.83-.21h-.14c-3.12-.13-4.69-.2-6.28-1.33a7.8,7.8,0,0,1-2.1-2.38,34,34,0,0,1-3.66-8.74l-.32-1.06c0-.09,0-.09-.39-1s-1.33-3.19-3.28-7.93c-3.38-8.2-3.64-8.87-4-10.26a36.2,36.2,0,0,1-.75-10.57,25.56,25.56,0,0,1,1.51-8.59,31,31,0,0,1,4.76-7.84c.36-.42.71-.8,1-1.16A8.57,8.57,0,0,0,12.65,23a14.67,14.67,0,0,0,.24-3.12,24,24,0,0,0-.49-4.14,17.06,17.06,0,0,0-.7-3.12,6.27,6.27,0,0,0-1.86-2.52C9.36,9.72,9,9.35,9,8.74a1.61,1.61,0,0,1,.67-1.21c3-2.56,16.55-4.11,28.79-2.2,1.69.26,7.2,1.28,7.3,3.41,0,.74-.56,1.18-1.19,1.65a5.92,5.92,0,0,0-2.18,2.52,10.87,10.87,0,0,0-.64,3.49l-.06.58a14.52,14.52,0,0,0,.23,5.78,16.88,16.88,0,0,0,2.4,4.33,32.22,32.22,0,0,0,1.93,2.68c.42.54.86,1.1,1.5,2,1.9,2.75,3.15,4.58,3.76,7.12.15.63.47,2,0,6.37A69.27,69.27,0,0,1,49.75,55a114.79,114.79,0,0,1-4.44,14c-1.88,4.77-3.44,8.18-3.45,8.21l-.48,1c-.52,1.11-.93,2-1.48,3.41-.45,1.15-.68,1.87-.84,2.35a4.21,4.21,0,0,1-.7,1.49c-1.56,2-4.19,2.33-7.22,2.68C30.9,88.21,30.74,88.23,30.47,88.23ZM27.06,5.47c-8.21,0-15,1.32-16.78,2.82a.72.72,0,0,0-.32.46h0c0,.15.24.37.55.65a7.21,7.21,0,0,1,2.11,2.88,17.14,17.14,0,0,1,.77,3.32,24.47,24.47,0,0,1,.5,4.31,15.74,15.74,0,0,1-.26,3.34,9.49,9.49,0,0,1-2.77,4.54c-.33.36-.67.73-1,1.14a31,31,0,0,0-4.58,7.56C4.13,39.32,4,41.61,3.81,44.77a35.15,35.15,0,0,0,.73,10.29c.3,1.31.55,2,3.9,10.1,2,4.73,2.86,6.9,3.28,7.93s.39,1,.42,1l.33,1.08A33.1,33.1,0,0,0,16,83.7a6.66,6.66,0,0,0,1.83,2.09c1.35,1,2.73,1,5.74,1.15h.14l4.83.22a13.3,13.3,0,0,0,2.46,0c2.93-.33,5.24-.59,6.54-2.29a3.15,3.15,0,0,0,.55-1.19c.16-.49.4-1.23.86-2.41.56-1.44,1-2.33,1.5-3.46l.48-1s1.56-3.42,3.43-8.17a112.13,112.13,0,0,0,4.4-13.84,69.71,69.71,0,0,0,1.71-9.61c.44-4.24.15-5.46,0-6-.57-2.36-1.71-4-3.61-6.79-.62-.9-1-1.44-1.47-2s-1.07-1.37-2-2.75A17.8,17.8,0,0,1,40.92,23a15.4,15.4,0,0,1-.26-6.15l.05-.58a11.88,11.88,0,0,1,.72-3.79,6.83,6.83,0,0,1,2.5-2.93c.43-.32.8-.59.79-.8,0-.89-3.37-2-6.45-2.48A73.93,73.93,0,0,0,27.06,5.47Z"/><path d="M27.34,5.06c11.25,0,17.13,2.4,17.13,3.69s-5.88,3.68-17.13,3.68S10.21,10,10.21,8.75s5.88-3.69,17.13-3.69m0-.75c-9.88,0-17.88,2-17.88,4.44s8,4.43,17.88,4.43,17.88-2,17.88-4.43-8-4.44-17.88-4.44Z"/></svg>