<svg id="Layer_1" data-name="Layer 1" xmlns="http://www.w3.org/2000/svg" width="667.51" height="126.1" viewBox="0 0 667.51 126.1"><path d="M484.48,105.73c-.34,0-.86,0-2-.08l-4.83-.21h-.14c-3.12-.13-4.69-.2-6.27-1.33a7.67,7.67,0,0,1-2.1-2.38A34.1,34.1,0,0,1,465.51,93c-.11-.36-.21-.72-.32-1.06,0-.09,0-.09-.39-1s-1.33-3.19-3.28-7.93c-3.38-8.2-3.64-8.87-4-10.26a36.2,36.2,0,0,1-.75-10.57,25.56,25.56,0,0,1,1.51-8.59,31,31,0,0,1,4.76-7.84c.36-.42.71-.8,1-1.16a8.49,8.49,0,0,0,2.53-4.08,14,14,0,0,0,.24-3.12,23.82,23.82,0,0,0-.48-4.13,17.89,17.89,0,0,0-.71-3.13,6.36,6.36,0,0,0-1.85-2.52c-.49-.42-.9-.79-.89-1.4a1.61,1.61,0,0,1,.67-1.21c3-2.55,16.55-4.11,28.8-2.2,1.68.26,7.19,1.28,7.3,3.41,0,.74-.57,1.19-1.2,1.65a5.9,5.9,0,0,0-2.17,2.52,10.58,10.58,0,0,0-.65,3.49l0,.58a14.52,14.52,0,0,0,.22,5.78,16.88,16.88,0,0,0,2.4,4.33,32.22,32.22,0,0,0,1.93,2.68c.43.54.87,1.1,1.5,2,1.9,2.76,3.15,4.58,3.76,7.12.16.63.47,2,0,6.37a69.27,69.27,0,0,1-1.73,9.75,113.07,113.07,0,0,1-4.44,14c-1.88,4.77-3.44,8.18-3.45,8.21l-.48,1c-.52,1.11-.93,2-1.48,3.41-.45,1.15-.68,1.87-.84,2.35a4,4,0,0,1-.7,1.49c-1.56,2-4.19,2.33-7.22,2.68C484.9,105.71,484.74,105.73,484.48,105.73ZM481.06,23c-8.21,0-15,1.32-16.78,2.82a.77.77,0,0,0-.32.46h0c0,.15.24.37.55.65a7.21,7.21,0,0,1,2.11,2.88,17.14,17.14,0,0,1,.77,3.32,24.47,24.47,0,0,1,.5,4.31,15.1,15.1,0,0,1-.26,3.34,9.42,9.42,0,0,1-2.77,4.54c-.33.36-.67.73-1,1.14A30.89,30.89,0,0,0,459.25,54a24.42,24.42,0,0,0-1.44,8.28,35.15,35.15,0,0,0,.73,10.29c.3,1.31.56,2,3.9,10.1,2,4.73,2.86,6.9,3.28,7.93a11.28,11.28,0,0,1,.43,1l.32,1.07A33.46,33.46,0,0,0,470,101.2a6.7,6.7,0,0,0,1.84,2.09c1.34,1,2.72,1,5.74,1.15h.13l4.84.22a13.36,13.36,0,0,0,2.46,0c2.92-.33,5.23-.59,6.54-2.29a3.16,3.16,0,0,0,.54-1.19c.16-.49.4-1.22.86-2.41.56-1.44,1-2.33,1.5-3.46l.48-1s1.56-3.42,3.43-8.17a112.13,112.13,0,0,0,4.4-13.84,69.71,69.71,0,0,0,1.71-9.61c.44-4.24.15-5.46,0-6-.56-2.36-1.71-4-3.61-6.78-.62-.9-1.05-1.45-1.47-2s-1.07-1.37-2-2.75a17.8,17.8,0,0,1-2.52-4.6,15.39,15.39,0,0,1-.26-6.15l0-.58a11.88,11.88,0,0,1,.72-3.79,6.78,6.78,0,0,1,2.51-2.93c.43-.32.8-.59.79-.8-.05-.88-3.38-2-6.46-2.47A72.61,72.61,0,0,0,481.06,23Z"/><path d="M481.34,22.57c11.25,0,17.14,2.39,17.14,3.68s-5.89,3.68-17.14,3.68-17.13-2.4-17.13-3.68,5.88-3.68,17.13-3.68m0-.75c-9.88,0-17.88,2-17.88,4.43s8,4.43,17.88,4.43,17.89-2,17.89-4.43-8-4.43-17.89-4.43Z"/><path d="M70.16,91.94a1,1,0,0,1,.53.28l1,1.26A38.69,38.69,0,0,1,67.1,98.1a27.34,27.34,0,0,1-5.43,3.59A28.8,28.8,0,0,1,55.2,104a33.24,33.24,0,0,1-7.73.84A28.34,28.34,0,0,1,34.7,102a29.19,29.19,0,0,1-10.06-8.26,40.05,40.05,0,0,1-6.59-13,57.23,57.23,0,0,1-2.38-17.1,56.14,56.14,0,0,1,2.38-16.85,39.3,39.3,0,0,1,6.71-13,30.41,30.41,0,0,1,10.37-8.41,29.62,29.62,0,0,1,13.31-3,28.39,28.39,0,0,1,12.12,2.46,34,34,0,0,1,9.84,7.12l-.73,1.26a.77.77,0,0,1-.77.4c-.2,0-.53-.21-1-.63s-1.08-.94-1.84-1.58S64.38,30,63.3,29.3a22.22,22.22,0,0,0-3.81-2.07,29,29,0,0,0-4.94-1.58A27.51,27.51,0,0,0,48.44,25,26.94,26.94,0,0,0,26.82,35.41a36.54,36.54,0,0,0-6.18,12.14,54.29,54.29,0,0,0-2.2,16,55,55,0,0,0,2.2,16.21,37,37,0,0,0,6.13,12.11A27.08,27.08,0,0,0,36,99.51a25.78,25.78,0,0,0,11.59,2.64,35.41,35.41,0,0,0,7-.63,23.43,23.43,0,0,0,5.7-1.9,23.69,23.69,0,0,0,4.8-3.09,47.21,47.21,0,0,0,4.38-4.19A.91.91,0,0,1,70.16,91.94Z"/><path d="M144.27,23.24v80.69h-2.72V64.28H95.75v39.65H93.08V23.24h2.67V61.75h45.8V23.24Z"/><path d="M213.1,101.23l-.1,2.7H172.77V23.24H213v2.7H175.43V61.69h31.66v2.64H175.43v36.9Z"/><path d="M281.25,103.93h-2.18a2.55,2.55,0,0,1-.95-.17,2,2,0,0,1-.8-.81l-24-34.83a5.67,5.67,0,0,0-.8-1,3.52,3.52,0,0,0-.92-.66,4,4,0,0,0-1.21-.38,11.81,11.81,0,0,0-1.72-.11h-9.94v38H236V23.24h16.44q11.1,0,16.86,5.11t5.77,15.5a23.72,23.72,0,0,1-1.5,8.63,19.67,19.67,0,0,1-10.81,11.25,26,26,0,0,1-8.58,2,6.61,6.61,0,0,1,1.7,1.72Zm-42.56-40.4h13a26,26,0,0,0,8.65-1.35,18.11,18.11,0,0,0,6.55-3.9A17.12,17.12,0,0,0,271,52.11,22.08,22.08,0,0,0,272.43,44q0-9.35-5.14-13.77t-14.83-4.42H238.69Z"/><path d="M350.71,103.93h-2.09c-.48,0-.84-.33-1.06-1l-8.87-25.53h-35L294.82,103a1.1,1.1,0,0,1-1.12,1h-2l28.21-80.69h2.57ZM337.81,75l-15.6-44.94c-.36-1-.7-2.18-1-3.44a26.6,26.6,0,0,1-1,3.44L304.56,75Z"/><path d="M435.58,23.24v80.69h-2.33V30.13c0-.31,0-.61,0-.92s0-.61,0-.92l-28.6,59.4c-.32.65-.71,1-1.16,1h-.48c-.49,0-.89-.32-1.22-1L372.37,28.18c0,.34.06.68.08,1s0,.64,0,.95v73.8h-2.33V23.24h1.6a1.34,1.34,0,0,1,.66.15,1.44,1.44,0,0,1,.51.6l29.56,59.45c.3.73.57,1.44.83,2.13.13-.35.26-.7.39-1.07s.27-.73.43-1.12L432.82,24a1.31,1.31,0,0,1,.51-.6,1.28,1.28,0,0,1,.65-.15Z"/><path d="M582.71,92.58a1,1,0,0,1,.53.27l1,1.2a37.36,37.36,0,0,1-4.5,4.4,26.93,26.93,0,0,1-5.29,3.42,29.62,29.62,0,0,1-6.32,2.21,33.43,33.43,0,0,1-7.54.79,27.94,27.94,0,0,1-22.29-10.63,37.88,37.88,0,0,1-6.43-12.38,53.26,53.26,0,0,1-2.32-16.28,52.27,52.27,0,0,1,2.32-16,37.28,37.28,0,0,1,6.55-12.4,29.13,29.13,0,0,1,23.11-10.85,28.2,28.2,0,0,1,11.83,2.35,32.81,32.81,0,0,1,9.6,6.77l-.71,1.21a.77.77,0,0,1-.76.38,2.1,2.1,0,0,1-1-.6c-.45-.4-1-.9-1.79-1.5s-1.64-1.26-2.7-2a22.11,22.11,0,0,0-3.71-2,28.07,28.07,0,0,0-4.83-1.5,27.46,27.46,0,0,0-6-.6,27.13,27.13,0,0,0-11.82,2.56,26.76,26.76,0,0,0-9.28,7.33,34.72,34.72,0,0,0-6,11.56,50.61,50.61,0,0,0-2.15,15.27A51.3,51.3,0,0,0,534.39,81a34.77,34.77,0,0,0,6,11.53,26.24,26.24,0,0,0,9,7.24,25.6,25.6,0,0,0,11.31,2.51,35.53,35.53,0,0,0,6.86-.6A23,23,0,0,0,577.82,97a47.39,47.39,0,0,0,4.28-4A.88.88,0,0,1,582.71,92.58Z"/><path d="M636.5,35.14a.88.88,0,0,1-.8.55c-.35,0-.83-.36-1.45-1.07a19.48,19.48,0,0,0-2.57-2.38,17.94,17.94,0,0,0-4.26-2.37A17,17,0,0,0,621,28.8a16.81,16.81,0,0,0-6.89,1.34,14.45,14.45,0,0,0-5,3.64A15.52,15.52,0,0,0,606,39.05a18.65,18.65,0,0,0-1,6.26,15.08,15.08,0,0,0,1.47,7,14.48,14.48,0,0,0,3.87,4.72,23.63,23.63,0,0,0,5.47,3.23q3,1.3,6.27,2.54t6.26,2.62A22,22,0,0,1,633.76,69a16,16,0,0,1,3.88,5.27A18.51,18.51,0,0,1,639.1,82,28,28,0,0,1,637.71,91a21.27,21.27,0,0,1-4.07,7.27,19.13,19.13,0,0,1-6.53,4.87,20.78,20.78,0,0,1-8.77,1.77,25.24,25.24,0,0,1-6.08-.68,20.35,20.35,0,0,1-5-2A20,20,0,0,1,603,99.08a33.82,33.82,0,0,1-3.66-4.21l.61-1.09a4,4,0,0,1,.4-.41.78.78,0,0,1,.5-.14c.22,0,.53.23.92.68s.91,1,1.54,1.7,1.39,1.4,2.27,2.19a17.25,17.25,0,0,0,3.15,2.18,19.66,19.66,0,0,0,4.21,1.7,19.86,19.86,0,0,0,5.41.68,18.31,18.31,0,0,0,7.71-1.56,16.62,16.62,0,0,0,5.75-4.26,18.82,18.82,0,0,0,3.57-6.31,23.78,23.78,0,0,0,1.23-7.71,15.76,15.76,0,0,0-1.46-7.21,14.64,14.64,0,0,0-3.86-4.76,22.51,22.51,0,0,0-5.46-3.19q-3.08-1.29-6.27-2.46c-2.13-.79-4.22-1.64-6.27-2.57a21,21,0,0,1-5.46-3.55A16.21,16.21,0,0,1,604,53.42a19.18,19.18,0,0,1-1.46-8,21.29,21.29,0,0,1,1.23-7.21,18.6,18.6,0,0,1,3.57-6.09,17.2,17.2,0,0,1,5.77-4.24A18.66,18.66,0,0,1,621,26.29a20.22,20.22,0,0,1,8.87,1.86,22.38,22.38,0,0,1,7.21,5.79Z"/></svg>