<svg id="Layer_1" data-name="Layer 1" xmlns="http://www.w3.org/2000/svg" width="584.91" height="126.1" viewBox="0 0 584.91 126.1"><path d="M406.13,105.81c-.34,0-.86,0-2-.08l-4.83-.21h-.13c-3.12-.13-4.69-.2-6.28-1.33a7.8,7.8,0,0,1-2.1-2.38,33.68,33.68,0,0,1-3.66-8.74L386.85,92c0-.09,0-.09-.4-1s-1.32-3.19-3.27-7.93c-3.38-8.2-3.64-8.87-4-10.26a36.2,36.2,0,0,1-.75-10.57A25.32,25.32,0,0,1,380,53.7a31.45,31.45,0,0,1,4.75-7.84c.36-.42.71-.8,1-1.16a8.57,8.57,0,0,0,2.53-4.08,13.93,13.93,0,0,0,.23-3.12,23.1,23.1,0,0,0-.48-4.14,16,16,0,0,0-.71-3.12,6.18,6.18,0,0,0-1.85-2.52c-.48-.42-.9-.79-.89-1.4a1.65,1.65,0,0,1,.68-1.21c3-2.56,16.54-4.11,28.79-2.2,1.69.26,7.2,1.28,7.3,3.41,0,.74-.56,1.18-1.19,1.65A5.85,5.85,0,0,0,418,30.49a11.12,11.12,0,0,0-.65,3.49l-.05.58a14.52,14.52,0,0,0,.23,5.78,17.08,17.08,0,0,0,2.39,4.33c.89,1.35,1.4,2,1.93,2.68.43.54.87,1.1,1.51,2,1.9,2.75,3.15,4.58,3.76,7.12.15.63.47,2,0,6.37a69.27,69.27,0,0,1-1.73,9.75,113.11,113.11,0,0,1-4.45,14c-1.88,4.77-3.43,8.18-3.45,8.21l-.47,1c-.52,1.11-.93,2-1.48,3.41-.45,1.15-.69,1.87-.84,2.35a4.05,4.05,0,0,1-.71,1.49c-1.56,2-4.18,2.33-7.22,2.68C406.55,105.79,406.4,105.81,406.13,105.81Zm-3.41-82.76c-8.21,0-15,1.32-16.78,2.82-.21.17-.33.34-.33.46h0c0,.15.25.37.56.65a7.3,7.3,0,0,1,2.11,2.88,17.33,17.33,0,0,1,.76,3.32,23.56,23.56,0,0,1,.5,4.31,15,15,0,0,1-.25,3.34,9.43,9.43,0,0,1-2.78,4.54c-.32.36-.67.73-1,1.14a30.68,30.68,0,0,0-4.58,7.56,24.14,24.14,0,0,0-1.44,8.28,35,35,0,0,0,.72,10.29c.31,1.31.56,2,3.91,10.1,1.95,4.73,2.85,6.9,3.28,7.93s.39,1,.42,1c.11.35.21.71.33,1.08a32.75,32.75,0,0,0,3.55,8.49,6.53,6.53,0,0,0,1.83,2.09c1.35,1,2.73,1,5.74,1.15h.14l4.83.22a13.33,13.33,0,0,0,2.46,0c2.93-.33,5.24-.59,6.54-2.29a3.31,3.31,0,0,0,.55-1.19c.16-.49.4-1.23.86-2.41.56-1.44,1-2.33,1.5-3.46l.47-1S418.16,91,420,86.22a112.16,112.16,0,0,0,4.41-13.84,69.71,69.71,0,0,0,1.71-9.61c.44-4.24.15-5.46,0-6-.57-2.36-1.72-4-3.62-6.79-.62-.89-1.05-1.44-1.46-2s-1.07-1.37-2-2.75a17.8,17.8,0,0,1-2.52-4.6,15.59,15.59,0,0,1-.27-6.15l.06-.58a11.35,11.35,0,0,1,.72-3.79,6.83,6.83,0,0,1,2.5-2.93c.43-.32.8-.59.79-.8,0-.89-3.37-2-6.45-2.48A74,74,0,0,0,402.72,23.05Z"/><path d="M403,22.64c11.25,0,17.13,2.4,17.13,3.69S414.25,30,403,30s-17.14-2.4-17.14-3.68,5.89-3.69,17.14-3.69m0-.75c-9.88,0-17.89,2-17.89,4.44s8,4.43,17.89,4.43,17.88-2,17.88-4.43-8-4.44-17.88-4.44Z"/><path d="M70.16,91.94a1,1,0,0,1,.53.28l1,1.26A38.69,38.69,0,0,1,67.1,98.1a27.34,27.34,0,0,1-5.43,3.59A28.8,28.8,0,0,1,55.2,104a33.24,33.24,0,0,1-7.73.84A28.34,28.34,0,0,1,34.7,102a29.19,29.19,0,0,1-10.06-8.26,40.05,40.05,0,0,1-6.59-13,57.23,57.23,0,0,1-2.38-17.1,56.14,56.14,0,0,1,2.38-16.85,39.3,39.3,0,0,1,6.71-13,30.41,30.41,0,0,1,10.37-8.41,29.62,29.62,0,0,1,13.31-3,28.39,28.39,0,0,1,12.12,2.46,34,34,0,0,1,9.84,7.12l-.73,1.26a.77.77,0,0,1-.77.4c-.2,0-.53-.21-1-.63s-1.08-.94-1.84-1.58S64.38,30,63.3,29.3a22.22,22.22,0,0,0-3.81-2.07,29,29,0,0,0-4.94-1.58A27.51,27.51,0,0,0,48.44,25,26.94,26.94,0,0,0,26.82,35.41a36.54,36.54,0,0,0-6.18,12.14,54.29,54.29,0,0,0-2.2,16,55,55,0,0,0,2.2,16.21,37,37,0,0,0,6.13,12.11A27.08,27.08,0,0,0,36,99.51a25.78,25.78,0,0,0,11.59,2.64,35.41,35.41,0,0,0,7-.63,23.43,23.43,0,0,0,5.7-1.9,23.69,23.69,0,0,0,4.8-3.09,47.21,47.21,0,0,0,4.38-4.19A.91.91,0,0,1,70.16,91.94Z"/><path d="M133.41,101.23l-.1,2.7H93.08V23.24h40.23v2.7H95.75V61.69H127.4v2.64H95.75v36.9Z"/><path d="M201.56,103.93h-2.18a2.46,2.46,0,0,1-.94-.17,1.88,1.88,0,0,1-.8-.81l-24-34.83a5.26,5.26,0,0,0-.8-1,3.52,3.52,0,0,0-.92-.66,4,4,0,0,0-1.21-.38,11.81,11.81,0,0,0-1.72-.11H159v38h-2.66V23.24h16.43q11.1,0,16.87,5.11t5.77,15.5a23.72,23.72,0,0,1-1.51,8.63,19.59,19.59,0,0,1-10.81,11.25,26,26,0,0,1-8.58,2,6.46,6.46,0,0,1,1.7,1.72ZM159,63.53h13a26.1,26.1,0,0,0,8.66-1.35,18.06,18.06,0,0,0,6.54-3.9,17,17,0,0,0,4.12-6.17A22.08,22.08,0,0,0,192.74,44q0-9.35-5.14-13.77t-14.83-4.42H159Z"/><path d="M271,103.93h-2.08c-.49,0-.84-.33-1.07-1L259,77.42H224L215.13,103a1.1,1.1,0,0,1-1.11,1h-2l28.21-80.69h2.57ZM258.13,75,242.52,30.07c-.36-1-.7-2.18-1-3.44a26.6,26.6,0,0,1-1,3.44L224.88,75Z"/><path d="M355.89,23.24v80.69h-2.32V30.13c0-.31,0-.61,0-.92s0-.61,0-.92L325,87.69c-.33.65-.71,1-1.17,1h-.48c-.49,0-.89-.32-1.21-1L292.69,28.18c0,.34.05.68.07,1s0,.64,0,.95v73.8h-2.32V23.24h1.6a1.33,1.33,0,0,1,.65.15,1.31,1.31,0,0,1,.51.6l29.57,59.45c.29.73.56,1.44.82,2.13.13-.35.26-.7.39-1.07s.27-.73.44-1.12L353.13,24a1.16,1.16,0,0,1,1.16-.75Z"/><path d="M500.61,92.51a1,1,0,0,1,.52.27l1,1.2a37.36,37.36,0,0,1-4.5,4.4,27,27,0,0,1-5.3,3.42A29.34,29.34,0,0,1,486,104a33.46,33.46,0,0,1-7.55.79,27.94,27.94,0,0,1-22.28-10.63,37.74,37.74,0,0,1-6.43-12.37,53.37,53.37,0,0,1-2.32-16.29,52.32,52.32,0,0,1,2.32-16,37.1,37.1,0,0,1,6.55-12.4,29.09,29.09,0,0,1,23.11-10.85,28.2,28.2,0,0,1,11.83,2.35,33.26,33.26,0,0,1,9.6,6.77l-.71,1.21a.77.77,0,0,1-.76.38c-.19,0-.51-.2-1-.6s-1.05-.9-1.79-1.5-1.64-1.26-2.7-2a22.51,22.51,0,0,0-3.71-2,28.07,28.07,0,0,0-4.83-1.5,27.46,27.46,0,0,0-6-.6,27.07,27.07,0,0,0-11.83,2.57,26.67,26.67,0,0,0-9.27,7.32,34.53,34.53,0,0,0-6,11.56,50.3,50.3,0,0,0-2.15,15.27A51,51,0,0,0,452.29,81a34.66,34.66,0,0,0,6,11.53,26.25,26.25,0,0,0,9,7.24,25.6,25.6,0,0,0,11.31,2.51,35.53,35.53,0,0,0,6.86-.6,23.6,23.6,0,0,0,5.55-1.8,23,23,0,0,0,4.69-3,47.39,47.39,0,0,0,4.28-4A.89.89,0,0,1,500.61,92.51Z"/><path d="M554.4,35.07a.88.88,0,0,1-.8.55c-.35,0-.83-.36-1.45-1.07a18.84,18.84,0,0,0-2.57-2.37,17.61,17.61,0,0,0-4.26-2.38,17.07,17.07,0,0,0-6.44-1.07A16.79,16.79,0,0,0,532,30.07a14.58,14.58,0,0,0-5,3.64A15.61,15.61,0,0,0,523.89,39a18.69,18.69,0,0,0-1,6.26,15.08,15.08,0,0,0,1.46,7A14.54,14.54,0,0,0,528.19,57a24,24,0,0,0,5.47,3.22q3,1.3,6.26,2.54c2.15.82,4.24,1.7,6.27,2.62a22,22,0,0,1,5.47,3.53,16.09,16.09,0,0,1,3.88,5.27A18.51,18.51,0,0,1,557,82a28.09,28.09,0,0,1-1.39,8.94,21.22,21.22,0,0,1-4.07,7.26A19.13,19.13,0,0,1,545,103a20.83,20.83,0,0,1-8.78,1.77,25.22,25.22,0,0,1-6.07-.68,20.35,20.35,0,0,1-5-2A20,20,0,0,1,520.93,99a34.72,34.72,0,0,1-3.67-4.21l.62-1.09a4,4,0,0,1,.4-.41.78.78,0,0,1,.5-.14c.22,0,.53.23.92.69s.91,1,1.54,1.69,1.39,1.4,2.27,2.19a17.25,17.25,0,0,0,3.15,2.18,19.66,19.66,0,0,0,4.21,1.7,19.86,19.86,0,0,0,5.41.68,18.31,18.31,0,0,0,7.71-1.56,16.71,16.71,0,0,0,5.75-4.26,18.82,18.82,0,0,0,3.57-6.31,23.78,23.78,0,0,0,1.23-7.71,15.76,15.76,0,0,0-1.46-7.21,14.64,14.64,0,0,0-3.86-4.76,22.51,22.51,0,0,0-5.46-3.19q-3.07-1.29-6.27-2.46c-2.13-.79-4.22-1.64-6.27-2.57a21,21,0,0,1-5.46-3.55,16.21,16.21,0,0,1-3.86-5.36,19.15,19.15,0,0,1-1.47-8,21.31,21.31,0,0,1,1.23-7.22A18.45,18.45,0,0,1,525.24,32,17.2,17.2,0,0,1,531,27.8a18.65,18.65,0,0,1,7.87-1.58,20.15,20.15,0,0,1,8.87,1.86A22.44,22.44,0,0,1,555,33.87Z"/></svg>