<svg id="Layer_1" data-name="Layer 1" xmlns="http://www.w3.org/2000/svg" width="568.94" height="245.12" viewBox="0 0 568.94 245.12"><defs><style>.cls-1{fill:#f2eae1;}.cls-2,.cls-3{fill:#f5e4d3;}.cls-2{stroke:#f2eae1;stroke-miterlimit:10;stroke-width:2px;}</style></defs><path class="cls-1" d="M406.13,106.81c-.35,0-.88,0-2-.08h-.19l-4.64-.2h-.13c-3.22-.14-5-.21-6.82-1.52a8.8,8.8,0,0,1-2.37-2.66,34.84,34.84,0,0,1-3.77-9c-.12-.41-.22-.74-.32-1,0-.07-.06-.16-.22-.54l-.14-.34-3.28-7.93c-3.41-8.27-3.67-9-4-10.41a37.27,37.27,0,0,1-.77-10.85,26.2,26.2,0,0,1,1.58-8.91A32.19,32.19,0,0,1,384,45.21L385,44a7.71,7.71,0,0,0,2.31-3.64,12.68,12.68,0,0,0,.21-2.88,22.45,22.45,0,0,0-.46-4,18.46,18.46,0,0,0-.65-2.93,5.4,5.4,0,0,0-1.59-2.14,2.79,2.79,0,0,1-1.23-2.17,2.6,2.6,0,0,1,1-2c3.62-3.05,18-4.23,29.6-2.42,3.64.56,8,1.78,8.14,4.35a3,3,0,0,1-1.6,2.51,4.89,4.89,0,0,0-1.85,2.1,10.18,10.18,0,0,0-.57,3.18l-.05.59a13.25,13.25,0,0,0,.19,5.4,16.25,16.25,0,0,0,2.27,4.07c.86,1.31,1.36,1.94,1.88,2.61s.87,1.11,1.54,2.08c2,2.85,3.26,4.73,3.91,7.45.17.69.51,2.13,0,6.71a70.61,70.61,0,0,1-1.75,9.89A112.83,112.83,0,0,1,421.89,87c-1.87,4.77-3.45,8.23-3.47,8.27l-.48,1c-.51,1.1-.91,2-1.45,3.35-.44,1.13-.67,1.83-.82,2.3a5,5,0,0,1-.86,1.79c-1.82,2.37-4.77,2.71-7.9,3.06A6.53,6.53,0,0,1,406.13,106.81ZM387,26.36a8,8,0,0,1,2.22,3.12A17.35,17.35,0,0,1,390,33a25.87,25.87,0,0,1,.51,4.47,15.75,15.75,0,0,1-.28,3.57,10.33,10.33,0,0,1-3,5c-.32.34-.65.71-1,1.11a29.8,29.8,0,0,0-4.41,7.27,23.62,23.62,0,0,0-1.37,8,33.93,33.93,0,0,0,.7,10c.28,1.24.53,1.89,3.85,10l3.28,7.92c.42,1,.42,1,.46,1.13.1.33.2.66.3,1a32.25,32.25,0,0,0,3.47,8.33,5.76,5.76,0,0,0,1.56,1.81c1.11.79,2.31.84,5.2,1h.13l4.79.21a14.38,14.38,0,0,0,2.36,0c2.8-.32,4.81-.54,5.86-1.91a2.51,2.51,0,0,0,.39-.89c.15-.46.4-1.23.87-2.46.58-1.47,1-2.37,1.53-3.52l.48-1c.27-.6,1.7-3.78,3.4-8.12a110.07,110.07,0,0,0,4.37-13.71,69.15,69.15,0,0,0,1.68-9.48c.42-4.06.15-5.21,0-5.7-.52-2.18-1.63-3.78-3.46-6.45-.6-.88-1-1.41-1.43-1.93-.54-.69-1.1-1.4-2-2.81a18.41,18.41,0,0,1-2.64-4.87,16.28,16.28,0,0,1-.3-6.52l.05-.58a12.38,12.38,0,0,1,.8-4.09A7.81,7.81,0,0,1,419,26.36a19.94,19.94,0,0,0-5.23-1.48,72.06,72.06,0,0,0-11-.83C395.12,24.05,389,25.18,387,26.36Zm-.49-.45Z"/><path class="cls-1" d="M403,31.76c-6.54,0-18.89-1.14-18.89-5.43s12.35-5.44,18.89-5.44,18.88,1.14,18.88,5.44S409.53,31.76,403,31.76Zm-16-5.43c1.15.87,6.11,2.68,16,2.68s14.82-1.81,16-2.68c-1.14-.88-6.11-2.69-16-2.69S388.18,25.45,387,26.33Z"/><path class="cls-2" d="M70.16,91.94a1,1,0,0,1,.53.28l1,1.26A38.69,38.69,0,0,1,67.1,98.1a27.34,27.34,0,0,1-5.43,3.59A28.8,28.8,0,0,1,55.2,104a33.24,33.24,0,0,1-7.73.84A28.34,28.34,0,0,1,34.7,102a29.19,29.19,0,0,1-10.06-8.26,40.05,40.05,0,0,1-6.59-13,57.23,57.23,0,0,1-2.38-17.1,56.14,56.14,0,0,1,2.38-16.85,39.3,39.3,0,0,1,6.71-13,30.41,30.41,0,0,1,10.37-8.41,29.62,29.62,0,0,1,13.31-3,28.39,28.39,0,0,1,12.12,2.46,34,34,0,0,1,9.84,7.12l-.73,1.26a.77.77,0,0,1-.77.4c-.2,0-.53-.21-1-.63s-1.08-.94-1.84-1.58S64.38,30,63.3,29.3a22.22,22.22,0,0,0-3.81-2.07,29,29,0,0,0-4.94-1.58A27.51,27.51,0,0,0,48.44,25,26.94,26.94,0,0,0,26.82,35.41a36.54,36.54,0,0,0-6.18,12.14,54.29,54.29,0,0,0-2.2,16,55,55,0,0,0,2.2,16.21,37,37,0,0,0,6.13,12.11A27.08,27.08,0,0,0,36,99.51a25.78,25.78,0,0,0,11.59,2.64,35.41,35.41,0,0,0,7-.63,23.43,23.43,0,0,0,5.7-1.9,23.69,23.69,0,0,0,4.8-3.09,47.21,47.21,0,0,0,4.38-4.19A.91.91,0,0,1,70.16,91.94Z"/><path class="cls-2" d="M133.41,101.23l-.1,2.7H93.08V23.24h40.23v2.7H95.75V61.69H127.4v2.64H95.75v36.9Z"/><path class="cls-2" d="M201.56,103.93h-2.18a2.46,2.46,0,0,1-.94-.17,1.88,1.88,0,0,1-.8-.81l-24-34.83a5.26,5.26,0,0,0-.8-1,3.52,3.52,0,0,0-.92-.66,4,4,0,0,0-1.21-.38,11.81,11.81,0,0,0-1.72-.11H159v38h-2.66V23.24h16.43q11.1,0,16.87,5.11t5.77,15.5a23.72,23.72,0,0,1-1.51,8.63,19.59,19.59,0,0,1-10.81,11.25,26,26,0,0,1-8.58,2,6.46,6.46,0,0,1,1.7,1.72ZM159,63.53h13a26.1,26.1,0,0,0,8.66-1.35,18.06,18.06,0,0,0,6.54-3.9,17,17,0,0,0,4.12-6.17A22.08,22.08,0,0,0,192.74,44q0-9.35-5.14-13.77t-14.83-4.42H159Z"/><path class="cls-2" d="M271,103.93h-2.08c-.49,0-.84-.33-1.07-1L259,77.42H224L215.13,103a1.1,1.1,0,0,1-1.11,1h-2l28.21-80.69h2.57ZM258.13,75,242.52,30.07c-.36-1-.7-2.18-1-3.44a26.6,26.6,0,0,1-1,3.44L224.88,75Z"/><path class="cls-2" d="M355.89,23.24v80.69h-2.32V30.13c0-.31,0-.61,0-.92s0-.61,0-.92L325,87.69c-.33.65-.71,1-1.17,1h-.48c-.49,0-.89-.32-1.21-1L292.69,28.18c0,.34.05.68.07,1s0,.64,0,.95v73.8h-2.32V23.24h1.6a1.33,1.33,0,0,1,.65.15,1.31,1.31,0,0,1,.51.6l29.57,59.45c.29.73.56,1.44.82,2.13.13-.35.26-.7.39-1.07s.27-.73.44-1.12L353.13,24a1.16,1.16,0,0,1,1.16-.75Z"/><path class="cls-2" d="M500.61,92.51a1,1,0,0,1,.52.27l1,1.2a37.36,37.36,0,0,1-4.5,4.4,27,27,0,0,1-5.3,3.42A29.34,29.34,0,0,1,486,104a33.46,33.46,0,0,1-7.55.79,27.94,27.94,0,0,1-22.28-10.63,37.74,37.74,0,0,1-6.43-12.37,53.37,53.37,0,0,1-2.32-16.29,52.32,52.32,0,0,1,2.32-16,37.1,37.1,0,0,1,6.55-12.4,29.09,29.09,0,0,1,23.11-10.85,28.2,28.2,0,0,1,11.83,2.35,33.26,33.26,0,0,1,9.6,6.77l-.71,1.21a.77.77,0,0,1-.76.38c-.19,0-.51-.2-1-.6s-1.05-.9-1.79-1.5-1.64-1.26-2.7-2a22.51,22.51,0,0,0-3.71-2,28.07,28.07,0,0,0-4.83-1.5,27.46,27.46,0,0,0-6-.6,27.07,27.07,0,0,0-11.83,2.57,26.67,26.67,0,0,0-9.27,7.32,34.53,34.53,0,0,0-6,11.56,50.3,50.3,0,0,0-2.15,15.27A51,51,0,0,0,452.29,81a34.66,34.66,0,0,0,6,11.53,26.25,26.25,0,0,0,9,7.24,25.6,25.6,0,0,0,11.31,2.51,35.53,35.53,0,0,0,6.86-.6,23.6,23.6,0,0,0,5.55-1.8,23,23,0,0,0,4.69-3,47.39,47.39,0,0,0,4.28-4A.89.89,0,0,1,500.61,92.51Z"/><path class="cls-2" d="M554.4,35.07a.88.88,0,0,1-.8.55c-.35,0-.83-.36-1.45-1.07a18.84,18.84,0,0,0-2.57-2.37,17.61,17.61,0,0,0-4.26-2.38,17.07,17.07,0,0,0-6.44-1.07A16.79,16.79,0,0,0,532,30.07a14.58,14.58,0,0,0-5,3.64A15.61,15.61,0,0,0,523.89,39a18.69,18.69,0,0,0-1,6.26,15.08,15.08,0,0,0,1.46,7A14.54,14.54,0,0,0,528.19,57a24,24,0,0,0,5.47,3.22q3,1.3,6.26,2.54c2.15.82,4.24,1.7,6.27,2.62a22,22,0,0,1,5.47,3.53,16.09,16.09,0,0,1,3.88,5.27A18.51,18.51,0,0,1,557,82a28.09,28.09,0,0,1-1.39,8.94,21.22,21.22,0,0,1-4.07,7.26A19.13,19.13,0,0,1,545,103a20.83,20.83,0,0,1-8.78,1.77,25.22,25.22,0,0,1-6.07-.68,20.35,20.35,0,0,1-5-2A20,20,0,0,1,520.93,99a34.72,34.72,0,0,1-3.67-4.21l.62-1.09a4,4,0,0,1,.4-.41.78.78,0,0,1,.5-.14c.22,0,.53.23.92.69s.91,1,1.54,1.69,1.39,1.4,2.27,2.19a17.25,17.25,0,0,0,3.15,2.18,19.66,19.66,0,0,0,4.21,1.7,19.86,19.86,0,0,0,5.41.68,18.31,18.31,0,0,0,7.71-1.56,16.71,16.71,0,0,0,5.75-4.26,18.82,18.82,0,0,0,3.57-6.31,23.78,23.78,0,0,0,1.23-7.71,15.76,15.76,0,0,0-1.46-7.21,14.64,14.64,0,0,0-3.86-4.76,22.51,22.51,0,0,0-5.46-3.19q-3.07-1.29-6.27-2.46c-2.13-.79-4.22-1.64-6.27-2.57a21,21,0,0,1-5.46-3.55,16.21,16.21,0,0,1-3.86-5.36,19.15,19.15,0,0,1-1.47-8,21.31,21.31,0,0,1,1.23-7.22A18.45,18.45,0,0,1,525.24,32,17.2,17.2,0,0,1,531,27.8a18.65,18.65,0,0,1,7.87-1.58,20.15,20.15,0,0,1,8.87,1.86A22.44,22.44,0,0,1,555,33.87Z"/><path class="cls-2" d="M146.52,195.72v27.54a43.38,43.38,0,0,1-10.85,6.46,37.33,37.33,0,0,1-27.54-.52,30.26,30.26,0,0,1-10.88-8.26,37.39,37.39,0,0,1-6.86-13,63,63,0,0,1,0-34.17,38.1,38.1,0,0,1,6.76-13,29.79,29.79,0,0,1,10.66-8.29,33.1,33.1,0,0,1,14.06-2.9,40.59,40.59,0,0,1,7.05.57,28.21,28.21,0,0,1,6,1.75,26.59,26.59,0,0,1,5.21,3,36,36,0,0,1,4.73,4.13l-.68,1.21a.87.87,0,0,1-1.12.45,6.81,6.81,0,0,1-1.77-1.49,19.67,19.67,0,0,0-3.75-2.84,32.62,32.62,0,0,0-28.58-1.4,26.93,26.93,0,0,0-9.79,7.63,35.53,35.53,0,0,0-6.23,12.14,60.8,60.8,0,0,0,0,32.27,35.38,35.38,0,0,0,6.28,12.2,27.18,27.18,0,0,0,10,7.69,31.85,31.85,0,0,0,13.3,2.67,34.81,34.81,0,0,0,6.23-.52,30.08,30.08,0,0,0,5.45-1.49,33.59,33.59,0,0,0,5-2.38q2.42-1.41,4.89-3.19v-23.7H129.66a.72.72,0,0,1-.59-.29,1,1,0,0,1-.24-.63v-1.6Z"/><path class="cls-2" d="M220.83,231.18h-2.08c-.49,0-.84-.32-1.07-1l-8.87-25.54h-35l-8.87,25.54a1.09,1.09,0,0,1-1.11,1h-2l28.21-80.68h2.57Zm-12.89-28.92-15.61-44.93c-.36-1-.7-2.18-1-3.45a26.77,26.77,0,0,1-1,3.45l-15.6,44.93Z"/><path class="cls-2" d="M276.72,228.43v2.75H240.27V150.5h2.66v77.93Z"/><path class="cls-2" d="M332.31,228.43v2.75H295.86V150.5h2.67v77.93Z"/><path class="cls-2" d="M391.79,228.48l-.1,2.7H351.46V150.5h40.23v2.69H354.12V189h31.66v2.64H354.12v36.89Z"/><path class="cls-2" d="M459.94,231.18h-2.18a2.55,2.55,0,0,1-.95-.17,2,2,0,0,1-.8-.8l-24-34.84a5.67,5.67,0,0,0-.8-1,3.52,3.52,0,0,0-.92-.66,4,4,0,0,0-1.21-.37,10.43,10.43,0,0,0-1.72-.12h-9.94v38h-2.67V150.5h16.44q11.1,0,16.86,5.1t5.77,15.5a23.81,23.81,0,0,1-1.5,8.64A19.69,19.69,0,0,1,441.47,191a26,26,0,0,1-8.58,2,6.77,6.77,0,0,1,1.7,1.72Zm-42.56-40.4h13a26,26,0,0,0,8.65-1.35,18.11,18.11,0,0,0,6.55-3.9,17.12,17.12,0,0,0,4.12-6.17,22,22,0,0,0,1.43-8.15q0-9.35-5.14-13.77T431.15,153H417.38Z"/><path class="cls-2" d="M482.14,231.18h-2.67V150.5h2.67Z"/><path class="cls-3" d="M47.88,126.19l491.87,1.07"/><rect class="cls-3" x="292.81" y="-119.21" width="2" height="491.87" transform="translate(166.45 420.26) rotate(-89.88)"/></svg>