<svg id="Layer_1" data-name="Layer 1" xmlns="http://www.w3.org/2000/svg" width="64.39" height="96.48" viewBox="0 0 64.39 96.48"><path d="M35.17,90.74c-.34,0-.86,0-2-.07l-4.83-.22h-.13c-3.12-.13-4.69-.2-6.28-1.33a7.8,7.8,0,0,1-2.1-2.38A33.77,33.77,0,0,1,16.21,78l-.32-1.07-.4-1-3.28-7.93c-3.37-8.2-3.63-8.87-4-10.26a36.13,36.13,0,0,1-.75-10.56A25.33,25.33,0,0,1,9,38.63a31.45,31.45,0,0,1,4.75-7.84c.36-.42.71-.8,1.05-1.16a8.64,8.64,0,0,0,2.53-4.08,13.85,13.85,0,0,0,.23-3.11,22.89,22.89,0,0,0-.48-4.14,17,17,0,0,0-.71-3.13,6.22,6.22,0,0,0-1.85-2.51c-.48-.43-.9-.8-.89-1.41A1.65,1.65,0,0,1,14.33,10c3-2.55,16.54-4.11,28.79-2.2,1.69.26,7.19,1.28,7.3,3.41,0,.75-.56,1.19-1.19,1.65a5.89,5.89,0,0,0-2.18,2.53,10.77,10.77,0,0,0-.65,3.48l0,.59a14.3,14.3,0,0,0,.23,5.77A16.76,16.76,0,0,0,49,29.6a32.86,32.86,0,0,0,1.93,2.68c.43.54.87,1.1,1.51,2,1.89,2.76,3.15,4.58,3.76,7.12.15.64.47,2,0,6.37a70.77,70.77,0,0,1-1.73,9.75,113.11,113.11,0,0,1-4.45,14c-1.88,4.77-3.43,8.18-3.45,8.22l-.48,1c-.51,1.12-.92,2-1.47,3.41-.45,1.15-.69,1.87-.84,2.35A4.05,4.05,0,0,1,43.05,88c-1.56,2-4.18,2.34-7.22,2.68A4.68,4.68,0,0,1,35.17,90.74ZM31.75,8C23.55,8,16.75,9.3,15,10.8c-.2.18-.32.34-.32.46h0c0,.14.24.36.55.64a7.21,7.21,0,0,1,2.12,2.88,17.33,17.33,0,0,1,.76,3.32,24.58,24.58,0,0,1,.5,4.31,15.1,15.1,0,0,1-.25,3.35,9.45,9.45,0,0,1-2.78,4.53c-.32.36-.67.73-1,1.14A30.68,30.68,0,0,0,10,39a24.18,24.18,0,0,0-1.44,8.28,35,35,0,0,0,.72,10.29c.3,1.31.56,2,3.91,10.1,1.95,4.74,2.85,6.91,3.28,7.93s.39,1,.42,1.05c.11.34.21.7.32,1.07a33.22,33.22,0,0,0,3.56,8.5,6.75,6.75,0,0,0,1.83,2.09c1.35,1,2.72,1,5.74,1.14h.13l4.84.22a15.3,15.3,0,0,0,2.46,0c2.93-.34,5.24-.6,6.54-2.29a3.37,3.37,0,0,0,.55-1.2c.15-.49.39-1.22.86-2.41.56-1.44,1-2.33,1.5-3.46l.47-1s1.56-3.42,3.43-8.17a112.16,112.16,0,0,0,4.41-13.84,68.49,68.49,0,0,0,1.7-9.61c.45-4.24.15-5.46,0-6-.56-2.36-1.71-4-3.61-6.78-.62-.9-1-1.45-1.46-2a32.4,32.4,0,0,1-2-2.75,17.2,17.2,0,0,1-2.52-4.6,15.57,15.57,0,0,1-.27-6.15l.06-.58A11.35,11.35,0,0,1,46.13,15a6.83,6.83,0,0,1,2.5-2.93c.43-.32.8-.59.79-.8,0-.88-3.37-2-6.45-2.47A72.79,72.79,0,0,0,31.75,8Z"/><path d="M35.17,91.24c-.34,0-.87,0-2-.08H33L28.36,91h-.13c-3.12-.13-4.84-.2-6.55-1.42A8.17,8.17,0,0,1,19.45,87a34.19,34.19,0,0,1-3.72-8.86c-.13-.42-.23-.74-.32-1.06,0-.07,0-.08-.24-.57L15,76.17l-3.28-7.93C8.36,60,8.1,59.33,7.77,57.91A36.56,36.56,0,0,1,7,47.2a25.85,25.85,0,0,1,1.54-8.75,32,32,0,0,1,4.84-8c.36-.42.71-.8,1-1.16a8.12,8.12,0,0,0,2.43-3.87,13.9,13.9,0,0,0,.22-3,23.13,23.13,0,0,0-.47-4.06,17.42,17.42,0,0,0-.68-3A5.69,5.69,0,0,0,14.21,13a2.33,2.33,0,0,1-1.06-1.79A2.11,2.11,0,0,1,14,9.66C17.11,7,30.83,5.42,43.2,7.34c2.83.44,7.6,1.53,7.72,3.89,0,1-.72,1.58-1.4,2.08a5.36,5.36,0,0,0-2,2.31A10.31,10.31,0,0,0,46.9,19l0,.59a14.1,14.1,0,0,0,.21,5.59,16.67,16.67,0,0,0,2.33,4.2c.88,1.33,1.38,2,1.91,2.64s.86,1.1,1.52,2.06c1.93,2.8,3.2,4.65,3.83,7.28.16.67.49,2,0,6.54a68.35,68.35,0,0,1-1.74,9.82,113.51,113.51,0,0,1-4.46,14C48.6,76.46,47,79.91,47,79.94l-.48,1c-.52,1.11-.92,2-1.47,3.38-.44,1.14-.68,1.85-.83,2.33a4.53,4.53,0,0,1-.78,1.64c-1.69,2.2-4.41,2.51-7.56,2.87A5.48,5.48,0,0,1,35.17,91.24Zm-1.32-1a11.15,11.15,0,0,0,1.93,0l1.13-.13-1.13.13A9.93,9.93,0,0,1,33.85,90.2ZM28.28,90h.12l3.63.16L28.4,90ZM22,88.49a3.15,3.15,0,0,0,.29.22c1.26.9,2.48,1.07,4.77,1.19-2.23-.12-3.52-.29-4.77-1.19A3.15,3.15,0,0,1,22,88.49ZM15.23,11.25a4,4,0,0,0,.3.28,7.72,7.72,0,0,1,2.25,3.07A17.11,17.11,0,0,1,18.57,18a24.23,24.23,0,0,1,.51,4.39,15.1,15.1,0,0,1-.27,3.45,9.9,9.9,0,0,1-2.89,4.77c-.32.35-.66.72-1,1.13a29.86,29.86,0,0,0-4.5,7.41A23.85,23.85,0,0,0,9,47.31a34.68,34.68,0,0,0,.71,10.15c.29,1.27.55,1.93,3.88,10,2,4.73,2.85,6.9,3.28,7.93s.41,1,.44,1.09c.1.32.2.65.3,1A32.9,32.9,0,0,0,21.14,86a6.5,6.5,0,0,0,1.7,2c1.23.87,2.56.93,5.47,1h.13l4.79.22a16.28,16.28,0,0,0,2.44,0c2.8-.32,5-.57,6.19-2.1a2.74,2.74,0,0,0,.47-1c.15-.46.4-1.22.87-2.44.56-1.45,1-2.35,1.51-3.48l.48-1c.27-.61,1.7-3.79,3.42-8.14A111.16,111.16,0,0,0,53,57.19a69.18,69.18,0,0,0,1.7-9.54c.43-4.16.15-5.32,0-5.87-.55-2.27-1.67-3.91-3.54-6.62-.61-.89-1-1.43-1.45-1.95-.53-.69-1.08-1.39-2-2.78a18,18,0,0,1-2.58-4.74,15.6,15.6,0,0,1-.28-6.33l0-.58a11.73,11.73,0,0,1,.76-3.94,7.33,7.33,0,0,1,2.66-3.14,5.56,5.56,0,0,0,.55-.44c-.36-.46-2.79-1.44-6-1.94a73.25,73.25,0,0,0-11.14-.83c-8.29,0-14.88,1.37-16.45,2.7Zm27.48,76.4-.05.07-.09.1.09-.1Zm3.37-8.08-.46,1c-.48,1-.87,1.87-1.36,3.11.49-1.24.88-2.07,1.36-3.11ZM16.58,77.5c0,.09.05.19.08.29s.11.35.16.53c0-.16-.09-.31-.13-.46S16.61,77.61,16.58,77.5Zm33.5-7.57-.54,1.41c-.22.54-.42,1.06-.63,1.56.21-.5.42-1,.63-1.56ZM8.3,55.35c.11.75.26,1.53.44,2.33.32,1.35.57,2,3.94,10.18.5,1.23.94,2.28,1.31,3.19-.37-.91-.81-2-1.31-3.19C9.31,59.7,9.05,59,8.74,57.68,8.56,56.88,8.41,56.1,8.3,55.35Zm45.59,2.38c-.3,1.2-.63,2.4-1,3.6C53.26,60.13,53.59,58.93,53.89,57.73Zm1.29-6.19c-.4,2.42-.85,4.39-1.2,5.83C54.33,55.94,54.78,54,55.18,51.54ZM8.3,55.35ZM55.65,41.42l0,.12a9.4,9.4,0,0,1,.24,2.51,9.4,9.4,0,0,0-.24-2.51Zm-41-10.88c-.17.18-.34.38-.51.58a31,31,0,0,0-4.67,7.69c-.07.18-.13.36-.2.53.07-.17.13-.35.2-.53a30.91,30.91,0,0,1,4.67-7.69Zm36,2.27c.09.11.18.22.27.35C50.86,33,50.77,32.92,50.68,32.81ZM46.78,27c.42.79,1,1.66,1.76,2.83C47.74,28.63,47.18,27.78,46.78,27ZM18.05,21.52c0,.3,0,.6,0,.91a14.45,14.45,0,0,1-.24,3.23A8,8,0,0,1,15.7,29.4a7.94,7.94,0,0,0,2.14-3.74,14.49,14.49,0,0,0,.24-3.23C18.08,22.12,18.07,21.82,18.05,21.52Zm28,3.53c0,.12.06.24.1.36a2.76,2.76,0,0,0,.08.27,2.76,2.76,0,0,1-.08-.27C46.06,25.29,46,25.17,46,25.05Zm-.08-6.41a1.8,1.8,0,0,1,0,.22l0,.59c0,.3-.05.59-.08.87,0-.28,0-.57.08-.87l0-.59A1.64,1.64,0,0,0,45.92,18.64Zm-29-3.46a20,20,0,0,1,.66,3,2,2,0,0,1,0,.24c0-.08,0-.16,0-.25A20.1,20.1,0,0,0,16.93,15.18Zm31.78-2.52a6.13,6.13,0,0,0-2,2.39A6.31,6.31,0,0,1,48.71,12.66Zm-33.47-.05a6.44,6.44,0,0,1,1.31,1.72A6.44,6.44,0,0,0,15.24,12.61ZM18,9a9.25,9.25,0,0,0-3.39,1.46,1.16,1.16,0,0,0-.5.84.94.94,0,0,0,.32.65.94.94,0,0,1-.32-.65,1.19,1.19,0,0,1,.5-.84A9.42,9.42,0,0,1,18,9Zm31.87,2.22s0,.07,0,.1a.8.8,0,0,1-.17.51.75.75,0,0,0,.17-.51A.38.38,0,0,0,49.91,11.18ZM42.59,8.26l.45.07c.06,0,4.62.74,6.28,2-1.13-.9-3.72-1.63-6.28-2Z"/><path d="M32,7.58c11.24,0,17.13,2.39,17.13,3.68S43.28,14.94,32,14.94,14.9,12.54,14.9,11.26,20.79,7.58,32,7.58m0-.75c-9.88,0-17.89,2-17.89,4.43s8,4.43,17.89,4.43,17.88-2,17.88-4.43S41.91,6.83,32,6.83Z"/><path d="M32,16.19c-8.92,0-18.39-1.73-18.39-4.93S23.12,6.33,32,6.33s18.38,1.73,18.38,4.93S41,16.19,32,16.19Zm0-8.11c-11.82,0-16.51,2.54-16.64,3.19.13.63,4.82,3.17,16.64,3.17s16.5-2.54,16.63-3.19C48.54,10.62,43.85,8.08,32,8.08Z"/></svg>