<svg id="Layer_1" data-name="Layer 1" xmlns="http://www.w3.org/2000/svg" width="950.57" height="501.22" viewBox="0 0 950.57 501.22"><defs><style>.cls-1{fill:#737864;}.cls-2,.cls-3{fill:none;stroke:#000;stroke-miterlimit:10;}.cls-3{stroke-width:2px;}</style></defs><rect class="cls-1" x="-2.02" width="952.59" height="509.21"/><path class="cls-2" d="M573.5,168.18c0,.89,1.65,1.16,2.7,3.72a17.53,17.53,0,0,1,.74,3.23,24.69,24.69,0,0,1,.49,4.22,14.53,14.53,0,0,1-.25,3.23c-.53,2.37-2,3.49-3.68,5.46a30.71,30.71,0,0,0-4.67,7.7,25,25,0,0,0-1.48,8.44,35.67,35.67,0,0,0,.74,10.42c.31,1.35.54,2,3.93,10.18,3.69,8.95,3.62,8.74,3.69,8.94a37.12,37.12,0,0,0,3.93,9.68,7.18,7.18,0,0,0,2,2.24c1.49,1.06,2.95,1.1,6.15,1.24,6.75.28,6.59.33,7.37.24,3-.33,5.45-.61,6.88-2.48.56-.72.4-1,1.48-3.72.71-1.84,1.2-2.8,2-4.47,0,0,1.55-3.37,3.44-8.19a113,113,0,0,0,4.43-13.9,70.11,70.11,0,0,0,1.72-9.69c.42-4.1.18-5.44,0-6.2-.59-2.45-1.81-4.22-3.69-6.95-1.42-2.06-1.83-2.27-3.44-4.72a17.42,17.42,0,0,1-2.46-4.47,15,15,0,0,1-.24-6,13.34,13.34,0,0,1,.73-4.22c1.11-2.6,3.39-2.88,3.33-4-.09-1.89-6.87-2.95-6.87-2.95C588.42,163.08,573.53,165.53,573.5,168.18Z"/><path d="M591.38,164.75c11.14,0,16.88,2.4,16.88,3.43s-5.74,3.43-16.88,3.43-16.88-2.4-16.88-3.43,5.74-3.43,16.88-3.43m0-1c-9.88,0-17.88,2-17.88,4.43s8,4.43,17.88,4.43,17.88-2,17.88-4.43-8-4.43-17.88-4.43Z"/><path d="M305,324.93v27.78a45.09,45.09,0,0,1-11.23,6.51,39.54,39.54,0,0,1-28.48-.52,31.33,31.33,0,0,1-11.25-8.33,37.2,37.2,0,0,1-7.1-13.12,62.05,62.05,0,0,1,0-34.46,38.07,38.07,0,0,1,7-13.11,30.74,30.74,0,0,1,11-8.37,35.06,35.06,0,0,1,14.54-2.92,43.48,43.48,0,0,1,7.3.58,29.48,29.48,0,0,1,6.19,1.77,27.55,27.55,0,0,1,5.39,3,36.71,36.71,0,0,1,4.89,4.16l-.71,1.22a.89.89,0,0,1-1.15.46,6.92,6.92,0,0,1-1.83-1.5,20.5,20.5,0,0,0-3.88-2.87,31.26,31.26,0,0,0-6.55-2.8,35.73,35.73,0,0,0-23,1.38,27.93,27.93,0,0,0-10.13,7.7,35.48,35.48,0,0,0-6.44,12.24,59.77,59.77,0,0,0,0,32.56,35.35,35.35,0,0,0,6.49,12.3,28.17,28.17,0,0,0,10.33,7.76A33.78,33.78,0,0,0,280.17,359a38.31,38.31,0,0,0,6.45-.52,32.42,32.42,0,0,0,5.64-1.51,34.42,34.42,0,0,0,5.16-2.4q2.5-1.43,5.06-3.21V327.47H287.59a.76.76,0,0,1-.6-.29.92.92,0,0,1-.25-.63v-1.62Z"/><path d="M381.9,360.7h-2.15c-.51,0-.87-.33-1.11-1L369.47,334h-36.2l-9.18,25.75a1.12,1.12,0,0,1-1.15,1h-2.06l29.18-81.38h2.66Zm-13.33-29.17-16.15-45.32c-.37-1-.72-2.2-1.05-3.48a27.15,27.15,0,0,1-1.05,3.48l-16.15,45.32Z"/><path d="M439.71,357.92v2.78H402V279.32h2.75v78.6Z"/><path d="M497.21,357.92v2.78h-37.7V279.32h2.76v78.6Z"/><path d="M558.73,358l-.1,2.72H517V279.32h41.61V282H519.78V318.1h32.73v2.66H519.78V358Z"/><path d="M629.22,360.7H627a2.48,2.48,0,0,1-1-.18,1.91,1.91,0,0,1-.83-.81L600.3,324.58a5.82,5.82,0,0,0-.83-1,4.19,4.19,0,0,0-1-.67,4.35,4.35,0,0,0-1.26-.37,11.14,11.14,0,0,0-1.78-.12H585.2V360.7h-2.75V279.32h17q11.49,0,17.45,5.15t6,15.63a23.33,23.33,0,0,1-1.56,8.71,20.22,20.22,0,0,1-4.36,6.77,20.79,20.79,0,0,1-6.82,4.57,27.65,27.65,0,0,1-8.87,2.06,6.78,6.78,0,0,1,1.75,1.73ZM585.2,320h13.44a27.53,27.53,0,0,0,9-1.36,18.74,18.74,0,0,0,6.77-3.94,17.18,17.18,0,0,0,4.26-6.22,21.62,21.62,0,0,0,1.48-8.22q0-9.43-5.31-13.89t-15.35-4.46H585.2Z"/><path d="M652.19,360.7h-2.76V279.32h2.76Z"/><path d="M265.5,234.84a1,1,0,0,1,.53.28l1,1.26a38,38,0,0,1-4.61,4.62,26.77,26.77,0,0,1-5.43,3.59,28.63,28.63,0,0,1-6.47,2.32,33.24,33.24,0,0,1-7.73.84,28.34,28.34,0,0,1-12.77-2.9A29.28,29.28,0,0,1,220,236.59a40.05,40.05,0,0,1-6.59-13,57.55,57.55,0,0,1-2.38-17.1,56.46,56.46,0,0,1,2.38-16.85,39.3,39.3,0,0,1,6.71-13,30.35,30.35,0,0,1,10.38-8.41,29.55,29.55,0,0,1,13.3-3,28.39,28.39,0,0,1,12.12,2.46,34,34,0,0,1,9.84,7.12l-.73,1.26a.77.77,0,0,1-.77.4c-.2,0-.53-.21-1-.63s-1.08-.94-1.84-1.58-1.68-1.32-2.76-2.06a21.85,21.85,0,0,0-3.81-2.07,29,29,0,0,0-4.94-1.58,27.35,27.35,0,0,0-27.73,9.76A36.54,36.54,0,0,0,216,190.45a54.29,54.29,0,0,0-2.2,16A55,55,0,0,0,216,222.7a37,37,0,0,0,6.13,12.11,27.08,27.08,0,0,0,9.26,7.6A25.78,25.78,0,0,0,243,245.05a35.58,35.58,0,0,0,7-.63,23.5,23.5,0,0,0,10.49-5,48.56,48.56,0,0,0,4.39-4.19A.87.87,0,0,1,265.5,234.84Z"/><path d="M328.75,244.13l-.09,2.7H288.42V166.14h40.24v2.7H291.09v35.75h31.65v2.64H291.09v36.9Z"/><path d="M396.9,246.83h-2.18a2.5,2.5,0,0,1-.94-.17,1.93,1.93,0,0,1-.8-.81l-24-34.83a5.34,5.34,0,0,0-.8-1,3.75,3.75,0,0,0-.93-.66A3.91,3.91,0,0,0,366,209a11.81,11.81,0,0,0-1.72-.11h-9.94v38h-2.66V166.14h16.43q11.1,0,16.87,5.11t5.77,15.5a23.51,23.51,0,0,1-1.51,8.63,19.61,19.61,0,0,1-10.8,11.25,26.08,26.08,0,0,1-8.58,2,6.59,6.59,0,0,1,1.69,1.72Zm-42.56-40.4h13a26.08,26.08,0,0,0,8.65-1.35,18,18,0,0,0,6.54-3.9,17,17,0,0,0,4.12-6.17,22.08,22.08,0,0,0,1.43-8.15q0-9.35-5.14-13.77t-14.83-4.42H354.34Z"/><path d="M466.36,246.83h-2.08c-.49,0-.84-.33-1.07-1l-8.87-25.53h-35l-8.87,25.53a1.1,1.1,0,0,1-1.11,1h-2l28.21-80.69h2.57Zm-12.89-28.92L437.86,173c-.36-1-.69-2.18-1-3.44a26.6,26.6,0,0,1-1,3.44l-15.6,44.94Z"/><path d="M551.23,166.14v80.69h-2.32V173c0-.31,0-.61,0-.92s0-.61,0-.92l-28.6,59.4c-.33.65-.71,1-1.17,1h-.48c-.48,0-.89-.32-1.21-1L488,171.08c0,.34.05.68.07,1s0,.64,0,.95v73.8H485.8V166.14h1.6a1.16,1.16,0,0,1,1.16.75l29.57,59.45c.29.73.56,1.44.82,2.12.13-.34.26-.69.39-1.06s.27-.73.44-1.12l28.69-59.39a1.31,1.31,0,0,1,.51-.6,1.33,1.33,0,0,1,.65-.15Z"/><path d="M683.51,233.84a1,1,0,0,1,.52.27l1,1.2a37.36,37.36,0,0,1-4.5,4.4,26.93,26.93,0,0,1-5.29,3.42,28.56,28.56,0,0,1-6.32,2.21,33.43,33.43,0,0,1-7.54.79,28.24,28.24,0,0,1-12.47-2.75,28.52,28.52,0,0,1-9.82-7.87,38.09,38.09,0,0,1-6.43-12.38,53.68,53.68,0,0,1-2.32-16.29,52.62,52.62,0,0,1,2.32-16,37.38,37.38,0,0,1,6.55-12.4,29.13,29.13,0,0,1,23.11-10.85,28.35,28.35,0,0,1,11.83,2.35,33,33,0,0,1,9.6,6.78l-.71,1.2a.76.76,0,0,1-.75.38,2.06,2.06,0,0,1-1-.6c-.45-.4-1-.9-1.79-1.5s-1.64-1.26-2.7-2a22.11,22.11,0,0,0-3.71-2,28.07,28.07,0,0,0-4.83-1.5,27.46,27.46,0,0,0-6-.6,27.13,27.13,0,0,0-11.82,2.57,26.61,26.61,0,0,0-9.28,7.32,34.72,34.72,0,0,0-6,11.56A50.66,50.66,0,0,0,633,206.84a51.25,51.25,0,0,0,2.15,15.44,34.67,34.67,0,0,0,6,11.53,26.13,26.13,0,0,0,9,7.24,25.61,25.61,0,0,0,11.31,2.52,35.53,35.53,0,0,0,6.86-.6,23.85,23.85,0,0,0,5.56-1.81,23.22,23.22,0,0,0,4.68-2.95,44.68,44.68,0,0,0,4.28-4A.91.91,0,0,1,683.51,233.84Z"/><line class="cls-3" x1="138.63" y1="260.51" x2="787.85" y2="260.51"/></svg>